{"title":"Street Fighter Legend Of Chun Li[2009]DvDrip-LW","uid":4958545,"size":733773700,"categoryP":"video","categoryS":"movies","magnet":"?xt=urn:btih:5a99c9909329a3315ed55829d92f1a3ca9e0a828&amp;dn=Street+Fighter+Legend+Of+Chun+Li%5B2009%5DDvDrip-LW&amp;tr=udp%3A%2F%2Ftracker.openbittorrent.com%3A80&amp;tr=udp%3A%2F%2Fopen.demonii.com%3A1337&amp;tr=udp%3A%2F%2Ftracker.coppersurfer.tk%3A6969&amp;tr=udp%3A%2F%2Fexodus.desync.com%3A6969","seeders":2,"leechers":3,"uploader":"XoLWoX","files":-1,"time":1245212110,"description":"-------------------------------------------------\nF I L E - I N F O\n-------------------------------------------------\nTITLE......[ Street Fight: Legend Of Chun Li\nYEAR.......[ 2009\nGENRE......[ Action\nRUNTIME....[ 01:37:22\nSTORE DATE.[ 2009 (USA)\nIMDB RATE..[ 4.2/10 (2,819 Votes)\nIMDB URL...[ http://www.imdb.com/title/tt0891592/\n-------------------------------------------------\nFormat                           : AVI\nFormat/Info                      : Audio Video Interleave\nFile size                        : 700 MiB\nDuration                         : 1h 37mn\nOverall bit rate                 : 1 005 Kbps\nWriting application              : VirtualDubMod 1.5.10.2 (build 2542/release)\nWriting library                  : VirtualDubMod build 2542/release\nSOURCE                           : DVD\n-------------------------------------------------\nV I D E O\n-------------------------------------------------\nFormat                           : MPEG-4 Visual\nFormat profile                   : Streaming Video@L1\nFormat settings, BVOP            : Yes\nFormat settings, QPel            : No\nFormat settings, GMC             : No warppoints\nFormat settings, Matrix          : Default (MPEG)\nMuxing mode                      : Packed bitstream\nCodec ID                         : XVID\nCodec ID/Hint                    : XviD\nDuration                         : 1h 37mn\nBit rate                         : 843 Kbps\nWidth                            : 640 pixels\nHeight                           : 272 pixels\nDisplay aspect ratio             : 2.35\nFrame rate                       : 23.976 fps\nResolution                       : 24 bits\nColorimetry                      : 4:2:0\nScan type                        : Progressive\nBits/(Pixel*Frame)               : 0.202\nStream size                      : 587 MiB (84%)\nWriting library                  : XviD 1.2.1\n-------------------------------------------------\nA U D I O\n-------------------------------------------------\nFormat                           : MPEG Audio\nFormat version                   : Version 1\nFormat profile                   : Layer 3\nCodec ID                         : 55\nCodec ID/Hint                    : MP3\nDuration                         : 1h 37mn\nBit rate mode                    : Variable\nBit rate                         : 149 Kbps\nMinimum bit rate                 : 128 Kbps\nChannel(s)                       : 2 channels\nSampling rate                    : 48.0 KHz\nResolution                       : 16 bits\nStream size                      : 104 MiB (15%)\nAlignment                        : Aligned on interleaves\nInterleave, duration             : 24 ms (0.58 video frame)\nInterleave, preload duration     : 123 ms\nWriting library                  : LAME3.98r\nEncoding settings                : VBR\n-------------------------------------------------\nP L O T\n-------------------------------------------------\nUndercover agent Chun Li (Kristin Kreuk) seeks \njustice and peace in this action-packed adaptation \nof the megahit video game franchise Street Fighter. \nEmploying her signature high-kicking style, Chun Li \nis a force to be reckoned with. The cast includes \nNeal McDonough as M. Bison, Chris Klein as Nash, \nMichael Clarke Duncan as Balrog and Black Eyed Peas \nsinger Taboo as Vega. Chun Li is known in gamer \ncircles as &quot;the First Lady of Fighting Games.&quot; \n\nStarring: Michael Clarke Duncan, Kristin Kreuk\n\nDirector: Andrzej Bartkowiak\n-------------------------------------------------","torrent":{"xt":"urn:btih:5a99c9909329a3315ed55829d92f1a3ca9e0a828","amp;dn":"Street+Fighter+Legend+Of+Chun+Li%5B2009%5DDvDrip-LW","amp;tr":["udp%3A%2F%2Ftracker.openbittorrent.com%3A80","udp%3A%2F%2Fopen.demonii.com%3A1337","udp%3A%2F%2Ftracker.coppersurfer.tk%3A6969","udp%3A%2F%2Fexodus.desync.com%3A6969"],"infoHash":"5a99c9909329a3315ed55829d92f1a3ca9e0a828","infoHashBuffer":{"type":"Buffer","data":[90,153,201,144,147,41,163,49,94,213,88,41,217,47,26,60,169,224,168,40]},"announce":[],"urlList":[]}}